<svg width="53" height="42" viewBox="0 0 53 42" fill="none" xmlns="http://www.w3.org/2000/svg">
<path d="M33.8542 0C35.2355 0 36.5603 0.548733 37.537 1.52549C38.5138 2.50224 39.0625 3.827 39.0625 5.20833V7.8125H43.0208C43.8015 7.8126 44.5721 7.98817 45.2758 8.32625C45.9794 8.66432 46.598 9.15624 47.0859 9.76562L50.9401 14.5859C51.6799 15.5096 52.0831 16.6577 52.0833 17.8411V28.6458C52.0833 30.0272 51.5346 31.3519 50.5578 32.3287C49.5811 33.3054 48.2563 33.8542 46.875 33.8542H44.2708C44.2708 35.9262 43.4477 37.9133 41.9826 39.3784C40.5175 40.8436 38.5303 41.6667 36.4583 41.6667C34.3863 41.6667 32.3992 40.8436 30.9341 39.3784C29.4689 37.9133 28.6458 35.9262 28.6458 33.8542H20.8333C20.8333 34.8801 20.6313 35.896 20.2386 36.8439C19.846 37.7917 19.2706 38.653 18.5451 39.3784C17.8196 40.1039 16.9584 40.6794 16.0105 41.072C15.0627 41.4646 14.0468 41.6667 13.0208 41.6667C11.9949 41.6667 10.979 41.4646 10.0311 41.072C9.08326 40.6794 8.22202 40.1039 7.49656 39.3784C6.7711 38.653 6.19564 37.7917 5.80303 36.8439C5.41041 35.896 5.20833 34.8801 5.20833 33.8542C3.827 33.8542 2.50224 33.3054 1.52549 32.3287C0.548733 31.3519 0 30.0272 0 28.6458V5.20833C0 3.827 0.548733 2.50224 1.52549 1.52549C2.50224 0.548733 3.827 0 5.20833 0H33.8542ZM13.0208 31.25C12.3302 31.25 11.6678 31.5244 11.1794 32.0127C10.691 32.5011 10.4167 33.1635 10.4167 33.8542C10.4167 34.5448 10.691 35.2072 11.1794 35.6956C11.6678 36.184 12.3302 36.4583 13.0208 36.4583C13.7115 36.4583 14.3739 36.184 14.8623 35.6956C15.3506 35.2072 15.625 34.5448 15.625 33.8542C15.625 33.1635 15.3506 32.5011 14.8623 32.0127C14.3739 31.5244 13.7115 31.25 13.0208 31.25ZM36.4583 31.25C35.7677 31.25 35.1053 31.5244 34.6169 32.0127C34.1285 32.5011 33.8542 33.1635 33.8542 33.8542C33.8542 34.5448 34.1285 35.2072 34.6169 35.6956C35.1053 36.184 35.7677 36.4583 36.4583 36.4583C37.149 36.4583 37.8114 36.184 38.2998 35.6956C38.7881 35.2072 39.0625 34.5448 39.0625 33.8542C39.0625 33.1635 38.7881 32.5011 38.2998 32.0127C37.8114 31.5244 37.149 31.25 36.4583 31.25ZM43.0208 13.0208H39.0625V23.4375H46.875V17.8385L43.0208 13.0208Z" fill="black"/>
</svg>
