<svg width="55" height="55" viewBox="0 0 55 55" fill="none" xmlns="http://www.w3.org/2000/svg">
<path d="M52.0833 25.836L44.9479 21.6954C51.8229 15.836 44.9219 4.8985 36.6667 8.62246L34.401 9.586L34.1146 7.086C33.8542 4.2735 32.3958 2.26829 30.4687 1.09642C26.1979 -1.38535 19.6875 0.315166 18.6458 6.51308L11.4844 2.3985C8.98437 0.940167 5.80729 1.79954 4.375 4.29954L1.77083 8.80475C1.04167 10.0548 1.48437 11.6433 2.73437 12.3725L23.0208 24.0912L26.9271 17.3204L31.4323 19.9245L27.526 26.6954L47.8125 38.4141C49.0625 39.0652 50.6771 38.7006 51.3802 37.4506L53.9844 32.9454C55.4167 30.4454 54.5833 27.2683 52.0833 25.836ZM27.0052 10.4193C24.7396 11.0704 22.9167 8.6485 24.0625 6.64329C24.7396 5.39329 26.3802 4.97663 27.6302 5.67975C29.6354 6.85163 29.2448 9.87246 27.0052 10.4193ZM40.5208 18.2318C38.2812 18.8829 36.4583 16.461 37.6042 14.4558C38.3073 13.2058 39.9219 12.7891 41.1458 13.4922C43.151 14.6641 42.7604 17.685 40.5208 18.2318ZM49.1406 41.3568C50.2083 41.3568 51.224 40.9923 52.0833 40.3673V49.4818C52.0833 52.3725 49.7656 54.6902 46.875 54.6902H5.20833C3.827 54.6902 2.50224 54.1414 1.52549 53.1647C0.548733 52.1879 0 50.8632 0 49.4818V26.0443H21.224L23.4375 27.3464V49.4818H28.6458V30.3412L46.5365 40.6537C47.3177 41.1225 48.1771 41.3568 49.1406 41.3568Z" fill="black"/>
</svg>
