<svg width="54" height="46" viewBox="0 0 54 46" fill="none" xmlns="http://www.w3.org/2000/svg">
<path d="M5.20833 41.6667C3.77604 41.6667 2.55035 41.1571 1.53125 40.138C0.512153 39.1189 0.00173611 37.8924 0 36.4583V5.20833C0 3.77604 0.510417 2.55035 1.53125 1.53125C2.55208 0.512152 3.77778 0.00173611 5.20833 0H46.875C48.3073 0 49.5339 0.510416 50.5547 1.53125C51.5755 2.55208 52.0851 3.77778 52.0833 5.20833V14.5182C52.0833 15.6033 51.5738 16.3524 50.5547 16.7656C49.5356 17.1788 48.5911 16.9939 47.7214 16.2109C47.5911 16.1241 47.4609 16.0156 47.3307 15.8854C47.2005 15.7552 47.0486 15.6467 46.875 15.5599V5.20833H28.6458V15.5599C26.3021 17.079 24.4141 19.1085 22.9818 21.6484C21.5495 24.1884 20.8333 26.9549 20.8333 29.9479C20.8333 31.5538 21.0503 33.0729 21.4844 34.5052C21.9184 35.9375 22.5043 37.283 23.2422 38.5417C23.6762 39.2361 23.7092 39.9306 23.3411 40.625C22.9731 41.3194 22.4193 41.6667 21.6797 41.6667H5.20833ZM37.7604 41.6667C34.5052 41.6667 31.7387 40.5278 29.4609 38.25C27.1832 35.9722 26.0434 33.2049 26.0417 29.9479C26.0399 26.691 27.1797 23.9245 29.4609 21.6484C31.7422 19.3724 34.5087 18.2326 37.7604 18.2292C41.0122 18.2257 43.7795 19.3655 46.0625 21.6484C48.3455 23.9314 49.4844 26.6979 49.4792 29.9479C49.4792 31.0764 49.3168 32.1615 48.9922 33.2031C48.6675 34.2448 48.2222 35.2431 47.6562 36.1979L52.8646 41.4062C53.342 41.8837 53.5807 42.4913 53.5807 43.2292C53.5807 43.967 53.342 44.5747 52.8646 45.0521C52.3872 45.5295 51.7795 45.7682 51.0417 45.7682C50.3038 45.7682 49.6962 45.5295 49.2188 45.0521L44.0104 39.8438C43.0556 40.408 42.0573 40.8533 41.0156 41.1797C39.974 41.5061 38.8889 41.6684 37.7604 41.6667ZM37.7604 36.4583C39.5833 36.4583 41.1241 35.829 42.3828 34.5703C43.6415 33.3116 44.2708 31.7708 44.2708 29.9479C44.2708 28.125 43.6415 26.5842 42.3828 25.3255C41.1241 24.0668 39.5833 23.4375 37.7604 23.4375C35.9375 23.4375 34.3967 24.0668 33.138 25.3255C31.8793 26.5842 31.25 28.125 31.25 29.9479C31.25 31.7708 31.8793 33.3116 33.138 34.5703C34.3967 35.829 35.9375 36.4583 37.7604 36.4583Z" fill="black"/>
</svg>
