<svg width="63" height="53" viewBox="0 0 63 53" fill="none" xmlns="http://www.w3.org/2000/svg">
<path d="M62.5 19.5237C62.4977 18.4502 62.1636 17.4037 61.5436 16.5273C60.9236 15.6509 60.048 14.9875 59.0365 14.6279C58.8378 14.5633 58.6271 14.5438 58.4199 14.5708C58.2127 14.5979 58.0141 14.6707 57.8386 14.7841C57.6715 14.9082 57.5353 15.069 57.4405 15.2541C57.3456 15.4393 57.2947 15.6438 57.2917 15.8519V25.8258C57.2947 26.0338 57.3456 26.2384 57.4405 26.4235C57.5353 26.6087 57.6715 26.7695 57.8386 26.8935C58.0133 27.0087 58.212 27.0826 58.4195 27.1097C58.6271 27.1367 58.838 27.1163 59.0365 27.0498C60.0522 26.6887 60.9308 26.0213 61.5511 25.1397C62.1715 24.2582 62.503 23.2059 62.5 22.1279V19.5237ZM53.3855 3.89873C53.384 3.24225 53.216 2.59688 52.8972 2.02301C52.5784 1.44914 52.1192 0.965547 51.5625 0.617482C49.4011 -0.762726 47.7344 0.383107 44.4792 1.97165C36.3989 6.33108 27.4072 8.73065 18.2292 8.97686C18.0467 8.97594 17.866 9.01341 17.6989 9.08683C17.5318 9.16025 17.382 9.26799 17.2592 9.40305C17.1364 9.53811 17.0434 9.69747 16.9862 9.87079C16.929 10.0441 16.9089 10.2275 16.9271 10.4091V32.7789C16.9761 36.7578 18.1198 40.6464 20.2329 44.0182C22.346 47.3899 25.3468 50.1147 28.9063 51.8935C29.5279 52.2009 30.2461 52.2487 30.903 52.0265C31.5599 51.8043 32.1015 51.3302 32.4089 50.7086C32.7162 50.087 32.7641 49.3688 32.5419 48.7119C32.3196 48.0551 31.8456 47.5134 31.224 47.206C28.578 45.8931 26.3377 43.887 24.7418 41.4014C23.1459 38.9158 22.2541 36.0438 22.1615 33.0914C29.9441 33.6963 37.521 35.8852 44.4271 39.5237C48.0209 41.2164 49.4792 42.1279 51.6146 40.8519C52.1636 40.4935 52.6136 40.0027 52.9231 39.4247C53.2325 38.8467 53.3915 38.2002 53.3855 37.5446V3.89873ZM13.0209 10.4091C13.0219 10.2347 12.9878 10.0618 12.9207 9.90074C12.8536 9.73969 12.7548 9.59377 12.6302 9.47165C12.3856 9.23586 12.0585 9.10502 11.7188 9.10706H9.11462C7.91671 9.10363 6.72994 9.33704 5.62256 9.79387C4.51517 10.2507 3.50902 10.9219 2.66197 11.769C1.81492 12.6161 1.14368 13.6222 0.686843 14.7296C0.230009 15.837 -0.00339993 17.0237 3.74197e-05 18.2216V23.43C0.00344396 24.6291 0.243442 25.8158 0.706278 26.922C1.16911 28.0283 1.84569 29.0323 2.69724 29.8766C3.54879 30.7209 4.55857 31.3888 5.66872 31.8422C6.77887 32.2955 7.96757 32.5254 9.1667 32.5185H11.7709C12.1026 32.5053 12.4168 32.3658 12.6492 32.1286C12.8815 31.8915 13.0145 31.5745 13.0209 31.2425V10.4091Z" fill="black"/>
</svg>
