<svg width="55" height="44" viewBox="0 0 55 44" fill="none" xmlns="http://www.w3.org/2000/svg">
<path d="M10.4167 27.8049C8.24654 27.8049 6.40192 27.0454 4.88282 25.5263C3.36372 24.0072 2.60418 22.1625 2.60418 19.9924V12.1799C2.60418 11.4421 2.85418 10.824 3.35418 10.3257C3.85418 9.82747 4.47223 9.57747 5.20834 9.57574H36.5234C36.7405 8.14345 37.3264 6.86306 38.2813 5.73459C39.2361 4.60612 40.408 3.80317 41.7969 3.32574L51.3672 0.135633C52.0616 -0.0813804 52.7344 -0.0379771 53.3854 0.265842C54.0365 0.569662 54.4705 1.06879 54.6875 1.76324C54.9045 2.45768 54.8507 3.13043 54.5261 3.78147C54.2014 4.43251 53.691 4.86654 52.9948 5.08355L43.4245 8.27365C42.9037 8.44726 42.48 8.76237 42.1537 9.21897C41.8273 9.67556 41.6649 10.1851 41.6667 10.7476V19.9924C41.6667 22.1625 40.9071 24.0072 39.388 25.5263C37.8689 27.0454 36.0243 27.8049 33.8542 27.8049H10.4167ZM18.2292 40.8257V35.6174H2.60418C1.86633 35.6174 1.24827 35.3674 0.750009 34.8674C0.251745 34.3674 0.00174509 33.7493 8.97988e-06 33.0132C-0.00172713 32.2771 0.248273 31.6591 0.750009 31.1591C1.25175 30.6591 1.8698 30.4091 2.60418 30.4091H18.2292C19.6615 30.4091 20.888 30.9195 21.9089 31.9403C22.9297 32.9612 23.4392 34.1868 23.4375 35.6174V40.8257C23.4375 41.5636 23.1875 42.1825 22.6875 42.6825C22.1875 43.1825 21.5695 43.4316 20.8333 43.4299C20.0972 43.4282 19.4792 43.1782 18.9792 42.6799C18.4792 42.1816 18.2292 41.5636 18.2292 40.8257ZM28.6458 40.8257V35.6174C28.6458 34.1851 29.1563 32.9594 30.1771 31.9403C31.1979 30.9212 32.4236 30.4108 33.8542 30.4091H49.4792C50.217 30.4091 50.8359 30.6591 51.3359 31.1591C51.8359 31.6591 52.0851 32.2771 52.0833 33.0132C52.0816 33.7493 51.8316 34.3683 51.3333 34.87C50.8351 35.3717 50.217 35.6209 49.4792 35.6174H33.8542V40.8257C33.8542 41.5636 33.6042 42.1825 33.1042 42.6825C32.6042 43.1825 31.9861 43.4316 31.25 43.4299C30.5139 43.4282 29.8958 43.1782 29.3958 42.6799C28.8958 42.1816 28.6458 41.5636 28.6458 40.8257Z" fill="black"/>
</svg>
